<?xml version="1.0" encoding="UTF-8"?>
<svg id="_65_keys" data-name="65 keys" xmlns="http://www.w3.org/2000/svg" viewBox="0 0 300 150">

  <rect x="58" y="45.66" width="11.28" height="11.37" rx=".78" ry=".78"/>
  <rect x="69.48" y="45.66" width="11.28" height="11.37" rx=".78" ry=".78"/>
  <rect x="80.96" y="45.66" width="11.28" height="11.37" rx=".78" ry=".78"/>
  <rect x="92.44" y="45.66" width="11.28" height="11.37" rx=".78" ry=".78"/>
  <rect x="104.02" y="45.66" width="11.28" height="11.37" rx=".78" ry=".78"/>
  <rect x="115.61" y="45.66" width="11.28" height="11.37" rx=".78" ry=".78"/>
  <rect x="127.09" y="45.66" width="11.28" height="11.37" rx=".78" ry=".78"/>
  <rect x="138.57" y="45.66" width="11.28" height="11.37" rx=".78" ry=".78"/>
  <rect x="150.15" y="45.66" width="11.28" height="11.37" rx=".78" ry=".78"/>
  <rect x="161.73" y="45.66" width="11.28" height="11.37" rx=".78" ry=".78"/>
  <rect x="173.21" y="45.66" width="11.28" height="11.37" rx=".78" ry=".78"/>
  <rect x="184.69" y="45.66" width="11.28" height="11.37" rx=".78" ry=".78"/>
  <rect x="196.27" y="45.66" width="11.28" height="11.37" rx=".78" ry=".78"/>
  <rect x="75.2" y="57.23" width="11.28" height="11.37" rx=".78" ry=".78"/>
  <rect x="58" y="57.23" width="16.88" height="11.37" rx=".78" ry=".78"/>
  <rect x="86.68" y="57.23" width="11.28" height="11.37" rx=".78" ry=".78"/>
  <rect x="98.16" y="57.23" width="11.28" height="11.37" rx=".78" ry=".78"/>
  <rect x="109.64" y="57.23" width="11.28" height="11.37" rx=".78" ry=".78"/>
  <rect x="121.22" y="57.23" width="11.28" height="11.37" rx=".78" ry=".78"/>
  <rect x="132.81" y="57.23" width="11.28" height="11.37" rx=".78" ry=".78"/>
  <rect x="144.29" y="57.23" width="11.28" height="11.37" rx=".78" ry=".78"/>
  <rect x="155.77" y="57.23" width="11.28" height="11.37" rx=".78" ry=".78"/>
  <rect x="167.35" y="57.23" width="11.28" height="11.37" rx=".78" ry=".78"/>
  <rect x="178.93" y="57.23" width="11.28" height="11.37" rx=".78" ry=".78"/>
  <rect x="190.41" y="57.23" width="11.28" height="11.37" rx=".78" ry=".78"/>
  <rect x="78.3" y="68.8" width="11.28" height="11.37" rx=".78" ry=".78"/>
  <rect x="58" y="68.8" width="19.98" height="11.37" rx=".78" ry=".78"/>
  <rect x="58" y="80.4" width="25.78" height="11.37" rx=".78" ry=".78"/>
  <rect x="89.78" y="68.8" width="11.28" height="11.37" rx=".78" ry=".78"/>
  <rect x="101.26" y="68.8" width="11.28" height="11.37" rx=".78" ry=".78"/>
  <rect x="112.74" y="68.8" width="11.28" height="11.37" rx=".78" ry=".78"/>
  <rect x="84.1" y="80.4" width="11.28" height="11.37" rx=".78" ry=".78"/>
  <rect x="95.58" y="80.4" width="11.28" height="11.37" rx=".78" ry=".78"/>
  <rect x="107.06" y="80.4" width="11.28" height="11.37" rx=".78" ry=".78"/>
  <rect x="101.26" y="92" width="71.68" height="11.37" rx=".78" ry=".78"/>
  <rect x="118.54" y="80.4" width="11.28" height="11.37" rx=".78" ry=".78"/>
  <rect x="124.32" y="68.8" width="11.28" height="11.37" rx=".78" ry=".78"/>
  <rect x="135.91" y="68.8" width="11.28" height="11.37" rx=".78" ry=".78"/>
  <rect x="147.39" y="68.8" width="11.28" height="11.37" rx=".78" ry=".78"/>
  <rect x="158.87" y="68.8" width="11.28" height="11.37" rx=".78" ry=".78"/>
  <rect x="170.45" y="68.8" width="11.28" height="11.37" rx=".78" ry=".78"/>
  <rect x="182.03" y="68.8" width="11.28" height="11.37" rx=".78" ry=".78"/>
  <rect x="193.51" y="68.8" width="11.28" height="11.37" rx=".78" ry=".78"/>
  <rect x="130.11" y="80.4" width="11.28" height="11.37" rx=".78" ry=".78"/>
  <rect x="141.59" y="80.4" width="11.28" height="11.37" rx=".78" ry=".78"/>
  <rect x="153.07" y="80.4" width="11.28" height="11.37" rx=".78" ry=".78"/>
  <rect x="164.65" y="80.4" width="11.28" height="11.37" rx=".78" ry=".78"/>
  <rect x="176.23" y="80.4" width="11.28" height="11.37" rx=".78" ry=".78"/>
  <rect x="187.71" y="80.4" width="11.28" height="11.37" rx=".78" ry=".78"/>
  <rect x="199.33" y="80.4" width="19.78" height="11.37" rx=".78" ry=".78"/>
  <rect x="219.31" y="80.4" width="11.28" height="11.37" rx=".78" ry=".78"/>
  <rect x="207.83" y="92" width="11.28" height="11.37" rx=".78" ry=".78"/>
  <rect x="219.31" y="92" width="11.28" height="11.37" rx=".78" ry=".78"/>
  <rect x="201.89" y="57.23" width="11.28" height="11.37" rx=".78" ry=".78"/>
  <rect x="213.47" y="57.23" width="17.08" height="11.37" rx=".78" ry=".78"/>
  <rect x="230.87" y="45.66" width="11.28" height="11.37" rx=".78" ry=".78"/>
  <rect x="230.87" y="57.23" width="11.28" height="11.37" rx=".78" ry=".78"/>
  <rect x="230.87" y="68.8" width="11.28" height="11.37" rx=".78" ry=".78"/>
  <rect x="230.87" y="80.37" width="11.28" height="11.37" rx=".78" ry=".78"/>
  <rect x="230.87" y="91.94" width="11.28" height="11.37" rx=".78" ry=".78"/>
  <rect x="173.23" y="92" width="11.28" height="11.37" rx=".78" ry=".78"/>
  <rect x="58.04" y="92" width="14.23" height="11.37" rx=".78" ry=".78"/>
  <rect x="72.5" y="92" width="14.23" height="11.37" rx=".78" ry=".78"/>
  <rect x="86.95" y="92" width="14.23" height="11.37" rx=".78" ry=".78"/>
  <rect x="184.71" y="92" width="11.28" height="11.37" rx=".78" ry=".78"/>
  <rect x="196.27" y="91.94" width="11.28" height="11.37" rx=".78" ry=".78"/>
  <rect x="207.77" y="45.66" width="22.78" height="11.37" rx=".78" ry=".78"/>
  <rect x="205.07" y="68.8" width="25.48" height="11.37" rx=".78" ry=".78"/>
</svg>