<?xml version="1.0" encoding="UTF-8"?>
<svg id="_75_keys" data-name="75 keys" xmlns="http://www.w3.org/2000/svg" viewBox="0 0 300 150">

  <g id="layer1">
    <rect id="rect2987" x="59.51" y="53.42" width="10.26" height="10.26" rx="1.99" ry="1.99"/>
    <g id="use3757">
      <rect id="rect2987-2" data-name="rect2987" x="88.01" y="64.82" width="10.26" height="10.26" rx="1.99" ry="1.99"/>
    </g>
    <g id="use3759">
      <rect id="rect2987-3" data-name="rect2987" x="99.41" y="64.82" width="10.26" height="10.26" rx="1.99" ry="1.99"/>
    </g>
    <g id="use3761">
      <rect id="rect2987-4" data-name="rect2987" x="110.81" y="64.82" width="10.26" height="10.26" rx="1.99" ry="1.99"/>
    </g>
    <g id="use3763">
      <rect id="rect2987-5" data-name="rect2987" x="122.21" y="64.82" width="10.26" height="10.26" rx="1.99" ry="1.99"/>
    </g>
    <g id="use3765">
      <rect id="rect2987-6" data-name="rect2987" x="133.61" y="64.82" width="10.26" height="10.26" rx="1.99" ry="1.99"/>
    </g>
    <g id="use3767">
      <rect id="rect2987-7" data-name="rect2987" x="145.01" y="64.82" width="10.26" height="10.26" rx="1.99" ry="1.99"/>
    </g>
    <g id="use3769">
      <rect id="rect2987-8" data-name="rect2987" x="156.41" y="64.82" width="10.26" height="10.26" rx="1.99" ry="1.99"/>
    </g>
    <g id="use3771">
      <rect id="rect2987-9" data-name="rect2987" x="167.81" y="64.82" width="10.26" height="10.26" rx="1.99" ry="1.99"/>
    </g>
    <g id="use3773">
      <rect id="rect2987-10" data-name="rect2987" x="179.21" y="64.82" width="10.26" height="10.26" rx="1.99" ry="1.99"/>
    </g>
    <g id="use3775">
      <rect id="rect2987-11" data-name="rect2987" x="190.61" y="64.82" width="10.26" height="10.26" rx="1.99" ry="1.99"/>
    </g>
    <g id="use3777">
      <rect id="rect2987-12" data-name="rect2987" x="202.01" y="64.82" width="10.26" height="10.26" rx="1.99" ry="1.99"/>
    </g>
    <g id="use3779">
      <rect id="rect2987-13" data-name="rect2987" x="79.46" y="76.22" width="10.26" height="10.26" rx="1.99" ry="1.99"/>
    </g>
    <g id="use3781">
      <rect id="rect2987-14" data-name="rect2987" x="90.86" y="76.22" width="10.26" height="10.26" rx="1.99" ry="1.99"/>
    </g>
    <g id="use3783">
      <rect id="rect2987-15" data-name="rect2987" x="102.26" y="76.22" width="10.26" height="10.26" rx="1.99" ry="1.99"/>
    </g>
    <g id="use3785">
      <rect id="rect2987-16" data-name="rect2987" x="113.66" y="76.22" width="10.26" height="10.26" rx="1.99" ry="1.99"/>
    </g>
    <g id="use3787">
      <rect id="rect2987-17" data-name="rect2987" x="125.06" y="76.22" width="10.26" height="10.26" rx="1.99" ry="1.99"/>
    </g>
    <g id="use3789">
      <rect id="rect2987-18" data-name="rect2987" x="136.46" y="76.22" width="10.26" height="10.26" rx="1.99" ry="1.99"/>
    </g>
    <g id="use3791">
      <rect id="rect2987-19" data-name="rect2987" x="147.86" y="76.22" width="10.26" height="10.26" rx="2" ry="2"/>
    </g>
    <g id="use3793">
      <rect id="rect2987-20" data-name="rect2987" x="159.26" y="76.22" width="10.26" height="10.26" rx="2" ry="2"/>
    </g>
    <g id="use3795">
      <rect id="rect2987-21" data-name="rect2987" x="170.66" y="76.22" width="10.26" height="10.26" rx="1.99" ry="1.99"/>
    </g>
    <g id="use3797">
      <rect id="rect2987-22" data-name="rect2987" x="182.06" y="76.22" width="10.26" height="10.26" rx="1.99" ry="1.99"/>
    </g>
    <g id="use3799">
      <rect id="rect2987-23" data-name="rect2987" x="193.46" y="76.22" width="10.26" height="10.26" rx="2" ry="2"/>
    </g>
    <g id="use3803">
      <rect id="rect2987-24" data-name="rect2987" x="85.16" y="87.62" width="10.26" height="10.26" rx="1.99" ry="1.99"/>
    </g>
    <g id="use3805">
      <rect id="rect2987-25" data-name="rect2987" x="96.56" y="87.62" width="10.26" height="10.26" rx="1.99" ry="1.99"/>
    </g>
    <g id="use3807">
      <rect id="rect2987-26" data-name="rect2987" x="107.96" y="87.62" width="10.26" height="10.26" rx="1.99" ry="1.99"/>
    </g>
    <g id="use3809">
      <rect id="rect2987-27" data-name="rect2987" x="119.36" y="87.62" width="10.26" height="10.26" rx="1.99" ry="1.99"/>
    </g>
    <g id="use3811">
      <rect id="rect2987-28" data-name="rect2987" x="130.76" y="87.62" width="10.26" height="10.26" rx="1.99" ry="1.99"/>
    </g>
    <g id="use3813">
      <rect id="rect2987-29" data-name="rect2987" x="142.16" y="87.62" width="10.26" height="10.26" rx="1.99" ry="1.99"/>
    </g>
    <g id="use3815">
      <rect id="rect2987-30" data-name="rect2987" x="153.56" y="87.62" width="10.26" height="10.26" rx="1.99" ry="1.99"/>
    </g>
    <g id="use3817">
      <rect id="rect2987-31" data-name="rect2987" x="164.96" y="87.62" width="10.26" height="10.26" rx="1.99" ry="1.99"/>
    </g>
    <g id="use3819">
      <rect id="rect2987-32" data-name="rect2987" x="176.36" y="87.62" width="10.26" height="10.26" rx="1.99" ry="1.99"/>
    </g>
    <g id="use3821">
      <rect id="rect2987-33" data-name="rect2987" x="187.76" y="87.62" width="10.26" height="10.26" rx="1.99" ry="1.99"/>
    </g>
    <g id="use3825">
      <rect id="rect2987-34" data-name="rect2987" x="70.91" y="53.42" width="10.26" height="10.26" rx="1.99" ry="1.99"/>
    </g>
    <g id="use3827">
      <rect id="rect2987-35" data-name="rect2987" x="82.31" y="53.42" width="10.26" height="10.26" rx="1.99" ry="1.99"/>
    </g>
    <g id="use3829">
      <rect id="rect2987-36" data-name="rect2987" x="93.71" y="53.42" width="10.26" height="10.26" rx="1.99" ry="1.99"/>
    </g>
    <g id="use3831">
      <rect id="rect2987-37" data-name="rect2987" x="105.11" y="53.42" width="10.26" height="10.26" rx="1.99" ry="1.99"/>
    </g>
    <g id="use3833">
      <rect id="rect2987-38" data-name="rect2987" x="116.51" y="53.42" width="10.26" height="10.26" rx="1.99" ry="1.99"/>
    </g>
    <g id="use3835">
      <rect id="rect2987-39" data-name="rect2987" x="127.91" y="53.42" width="10.26" height="10.26" rx="1.99" ry="1.99"/>
    </g>
    <g id="use3837">
      <rect id="rect2987-40" data-name="rect2987" x="139.31" y="53.42" width="10.26" height="10.26" rx="1.99" ry="1.99"/>
    </g>
    <g id="use3839">
      <rect id="rect2987-41" data-name="rect2987" x="150.71" y="53.42" width="10.26" height="10.26" rx="1.99" ry="1.99"/>
    </g>
    <g id="use3841">
      <rect id="rect2987-42" data-name="rect2987" x="162.11" y="53.42" width="10.26" height="10.26" rx="1.99" ry="1.99"/>
    </g>
    <g id="use3843">
      <rect id="rect2987-43" data-name="rect2987" x="173.51" y="53.42" width="10.26" height="10.26" rx="2" ry="2"/>
    </g>
    <g id="use3847">
      <rect id="rect2987-44" data-name="rect2987" x="184.91" y="53.42" width="10.26" height="10.26" rx="1.99" ry="1.99"/>
    </g>
    <g id="use3849">
      <rect id="rect2987-45" data-name="rect2987" x="196.31" y="53.42" width="10.26" height="10.26" rx="1.99" ry="1.99"/>
    </g>
    <g id="use3853">
      <rect id="rect2987-46" data-name="rect2987" x="76.61" y="64.82" width="10.26" height="10.26" rx="1.99" ry="1.99"/>
    </g>
    <rect id="rect3924" x="59.51" y="76.22" width="18.81" height="10.26" rx="1.99" ry="1.99"/>
    <rect id="rect4074" x="59.51" y="64.82" width="15.96" height="10.26" rx="1.99" ry="1.99"/>
  </g>
  <g id="layer9">
    <g id="use3845">
      <rect id="rect2987-47" data-name="rect2987" x="70.91" y="42.02" width="10.26" height="10.26" rx="1.99" ry="1.99"/>
    </g>
    <g id="use3855">
      <rect id="rect2987-48" data-name="rect2987" x="82.31" y="42.02" width="10.26" height="10.26" rx="1.99" ry="1.99"/>
    </g>
    <g id="use3857">
      <rect id="rect2987-49" data-name="rect2987" x="93.71" y="42.02" width="10.26" height="10.26" rx="1.99" ry="1.99"/>
    </g>
    <g id="use3859">
      <rect id="rect2987-50" data-name="rect2987" x="105.11" y="42.02" width="10.26" height="10.26" rx="1.99" ry="1.99"/>
    </g>
    <rect id="use3861" x="116.51" y="42.02" width="10.26" height="10.26" rx="1.99" ry="1.99"/>
    <g id="use3869">
      <rect id="rect2987-51" data-name="rect2987" x="162.11" y="42.02" width="10.26" height="10.26" rx="1.99" ry="1.99"/>
    </g>
    <g id="use3873">
      <rect id="rect2987-52" data-name="rect2987" x="173.51" y="42.02" width="10.26" height="10.26" rx="1.99" ry="1.99"/>
    </g>
    <g id="use3877">
      <rect id="rect2987-53" data-name="rect2987" x="196.31" y="42.02" width="10.26" height="10.26" rx="1.99" ry="1.99"/>
    </g>
    <rect id="use3879" x="59.51" y="42.02" width="10.26" height="10.26" rx="1.99" ry="1.99"/>
    <g id="use4054">
      <rect id="rect2987-54" data-name="rect2987" x="184.91" y="42.02" width="10.26" height="10.26" rx="1.99" ry="1.99"/>
    </g>
    <g id="use4257">
      <rect id="use3861-2" data-name="use3861" x="127.91" y="42.02" width="10.26" height="10.26" rx="1.99" ry="1.99"/>
    </g>
    <g id="use4259">
      <rect id="use3861-3" data-name="use3861" x="139.31" y="42.02" width="10.26" height="10.26" rx="1.99" ry="1.99"/>
    </g>
    <g id="use4261">
      <rect id="use3861-4" data-name="use3861" x="150.71" y="42.02" width="10.26" height="10.26" rx="2" ry="2"/>
    </g>
  </g>
  <g id="g3130">
    <rect id="rect3132" x="213.41" y="64.82" width="15.96" height="10.26" rx="1.99" ry="1.99"/>
    <rect id="rect3134" x="59.51" y="87.62" width="24.51" height="10.26" rx="1.99" ry="1.99"/>
    <rect id="rect3136" x="204.86" y="76.22" width="24.51" height="10.26" rx="1.99" ry="1.99"/>
    <rect id="use3895" x="207.71" y="53.42" width="21.66" height="10.26" rx="1.99" ry="1.99"/>
    <rect id="rect3911" x="199.16" y="87.62" width="18.81" height="10.26" rx="1.99" ry="1.99"/>
    <rect id="use3907" x="103.97" y="99.02" width="63.27" height="10.26" rx="1.99" ry="1.99"/>
  </g>
  <g id="g3254">
    <rect id="rect3258" x="59.51" y="87.62" width="24.51" height="10.26" rx="1.99" ry="1.99"/>
  </g>
  <g id="layer5">
    <rect id="use3090" x="207.71" y="42.02" width="10.26" height="10.26" rx="1.99" ry="1.99"/>
    <g id="use3984">
      <rect id="use3090-2" data-name="use3090" x="219.11" y="42.02" width="10.26" height="10.26" rx="1.99" ry="1.99"/>
    </g>
    <g id="use3986">
      <rect id="use3090-3" data-name="use3090" x="230.79" y="42.02" width="10.26" height="10.26" rx="1.99" ry="1.99"/>
    </g>
    <g id="use3988">
      <rect id="use3090-4" data-name="use3090" x="230.79" y="53.42" width="10.26" height="10.26" rx="1.99" ry="1.99"/>
    </g>
    <g id="use3994">
      <rect id="use3090-5" data-name="use3090" x="230.51" y="64.82" width="10.26" height="10.26" rx="1.99" ry="1.99"/>
    </g>
    <g id="use3996">
      <rect id="use3090-6" data-name="use3090" x="230.51" y="76.22" width="10.26" height="10.26" rx="1.99" ry="1.99"/>
    </g>
    <g id="use3998">
      <rect id="use3090-7" data-name="use3090" x="230.51" y="87.62" width="10.26" height="10.26" rx="1.99" ry="1.99"/>
    </g>
    <g id="use4000">
      <rect id="use3090-8" data-name="use3090" x="207.71" y="99.02" width="10.26" height="10.26" rx="1.99" ry="1.99"/>
    </g>
    <g id="use4002">
      <rect id="use3090-9" data-name="use3090" x="219.11" y="99.02" width="10.26" height="10.26" rx="1.99" ry="1.99"/>
    </g>
    <g id="use4004">
      <rect id="use3090-10" data-name="use3090" x="230.51" y="99.02" width="10.26" height="10.26" rx="1.99" ry="1.99"/>
    </g>
    <g id="use4006">
      <rect id="use3090-11" data-name="use3090" x="219.11" y="87.62" width="10.26" height="10.26" rx="1.99" ry="1.99"/>
    </g>
    <path id="use3343" d="M193.52,99.02h10.71c1.29,0,2.34,.89,2.34,1.99v6.27c0,1.1-1.05,1.99-2.34,1.99h-10.71c-1.29,0-2.34-.89-2.34-1.99v-6.27c0-1.1,1.05-1.99,2.34-1.99Z"/>
    <g id="use4047">
      <rect id="use3090-12" data-name="use3090" x="76.04" y="99.02" width="10.26" height="10.26" rx="1.99" ry="1.99"/>
    </g>
    <g id="use4049">
      <rect id="use3090-13" data-name="use3090" x="168.38" y="99.02" width="10.26" height="10.26" rx="1.99" ry="1.99"/>
    </g>
    <g id="use4053">
      <rect id="use3090-14" data-name="use3090" x="179.78" y="99.02" width="10.26" height="10.26" rx="1.99" ry="1.99"/>
    </g>
    <path id="use4061" d="M89.78,99.02h10.71c1.29,0,2.34,.89,2.34,2v6.27c0,1.1-1.05,1.99-2.34,1.99h-10.71c-1.29,0-2.34-.89-2.34-1.99v-6.27c0-1.1,1.05-2,2.34-2Z"/>
    <path id="use4063" d="M61.85,99.02h10.71c1.29,0,2.34,.89,2.34,1.99v6.27c0,1.1-1.05,1.99-2.34,1.99h-10.71c-1.29,0-2.34-.89-2.34-1.99v-6.27c0-1.1,1.05-1.99,2.34-1.99Z"/>
  </g>
</svg>