<?xml version="1.0" encoding="UTF-8"?>
<svg id="full_keys" data-name="full keys" xmlns="http://www.w3.org/2000/svg" viewBox="0 0 300 150">

  <g id="layer1">
    <g id="layer9">
      <g id="use3845">
        <rect id="rect2987" x="38.38" y="38.66" width="10.8" height="10.8" rx="2.1" ry="2.1"/>
      </g>
      <g id="use3855">
        <rect id="rect2987-2" data-name="rect2987" x="50.38" y="38.66" width="10.8" height="10.8" rx="2.1" ry="2.1"/>
      </g>
      <g id="use3857">
        <rect id="rect2987-3" data-name="rect2987" x="62.38" y="38.66" width="10.8" height="10.8" rx="2.1" ry="2.1"/>
      </g>
      <g id="use3859">
        <rect id="rect2987-4" data-name="rect2987" x="74.38" y="38.66" width="10.8" height="10.8" rx="2.1" ry="2.1"/>
      </g>
      <rect id="use3861" x="92.38" y="38.66" width="10.8" height="10.8" rx="2.1" ry="2.1"/>
      <g id="use3869">
        <rect id="rect2987-5" data-name="rect2987" x="146.38" y="38.66" width="10.8" height="10.8" rx="2.1" ry="2.1"/>
      </g>
      <g id="use3873">
        <rect id="rect2987-6" data-name="rect2987" x="158.38" y="38.66" width="10.8" height="10.8" rx="2.1" ry="2.1"/>
      </g>
      <g id="use3877">
        <rect id="rect2987-7" data-name="rect2987" x="182.38" y="38.66" width="10.8" height="10.8" rx="2.1" ry="2.1"/>
      </g>
      <rect id="use3879" x="14.38" y="38.66" width="10.8" height="10.8" rx="2.1" ry="2.1"/>
      <g id="use4054">
        <rect id="rect2987-8" data-name="rect2987" x="170.38" y="38.66" width="10.8" height="10.8" rx="2.1" ry="2.1"/>
      </g>
      <g id="use4257">
        <rect id="use3861-2" data-name="use3861" x="104.38" y="38.66" width="10.8" height="10.8" rx="2.1" ry="2.1"/>
      </g>
      <g id="use4259">
        <rect id="use3861-3" data-name="use3861" x="116.38" y="38.66" width="10.8" height="10.8" rx="2.1" ry="2.1"/>
      </g>
      <g id="use4261">
        <rect id="use3861-4" data-name="use3861" x="128.38" y="38.66" width="10.8" height="10.8" rx="2.1" ry="2.1"/>
      </g>
    </g>
    <g id="layer5">
      <rect id="use3090" x="197.08" y="38.36" width="10.8" height="10.8" rx="2.1" ry="2.1"/>
      <g id="use3984">
        <rect id="use3090-2" data-name="use3090" x="209.08" y="38.36" width="10.8" height="10.8" rx="2.1" ry="2.1"/>
      </g>
      <g id="use3986">
        <rect id="use3090-3" data-name="use3090" x="221.08" y="38.36" width="10.8" height="10.8" rx="2.1" ry="2.1"/>
      </g>
      <g id="use3988">
        <rect id="use3090-4" data-name="use3090" x="197.08" y="53.36" width="10.8" height="10.8" rx="2.1" ry="2.1"/>
      </g>
      <g id="use3990">
        <rect id="use3090-5" data-name="use3090" x="209.08" y="53.36" width="10.8" height="10.8" rx="2.1" ry="2.1"/>
      </g>
      <g id="use3992">
        <rect id="use3090-6" data-name="use3090" x="221.08" y="53.36" width="10.8" height="10.8" rx="2.1" ry="2.1"/>
      </g>
      <g id="use3994">
        <rect id="use3090-7" data-name="use3090" x="197.08" y="65.36" width="10.8" height="10.8" rx="2.1" ry="2.1"/>
      </g>
      <g id="use3996">
        <rect id="use3090-8" data-name="use3090" x="209.08" y="65.36" width="10.8" height="10.8" rx="2.1" ry="2.1"/>
      </g>
      <g id="use3998">
        <rect id="use3090-9" data-name="use3090" x="221.08" y="65.36" width="10.8" height="10.8" rx="2.1" ry="2.1"/>
      </g>
      <g id="use4000">
        <rect id="use3090-10" data-name="use3090" x="197.08" y="101.36" width="10.8" height="10.8" rx="2.1" ry="2.1"/>
      </g>
      <g id="use4002">
        <rect id="use3090-11" data-name="use3090" x="209.08" y="101.36" width="10.8" height="10.8" rx="2.1" ry="2.1"/>
      </g>
      <g id="use4004">
        <rect id="use3090-12" data-name="use3090" x="221.08" y="101.36" width="10.8" height="10.8" rx="2.1" ry="2.1"/>
      </g>
      <g id="use4006">
        <rect id="use3090-13" data-name="use3090" x="209.08" y="89.36" width="10.8" height="10.8" rx="2.1" ry="2.1"/>
      </g>
    </g>
    <g id="layer6">
      <rect id="use3096" x="236.08" y="65.36" width="10.8" height="10.8" rx="2.1" ry="2.1"/>
      <rect id="rect3124" x="236.08" y="101.36" width="22.8" height="10.8" rx="2.1" ry="2.1"/>
      <g id="use3925">
        <rect id="use3096-2" data-name="use3096" x="248.08" y="65.36" width="10.8" height="10.8" rx="2.1" ry="2.1"/>
      </g>
      <g id="use3927">
        <rect id="use3096-3" data-name="use3096" x="260.08" y="65.36" width="10.8" height="10.8" rx="2.1" ry="2.1"/>
      </g>
      <g id="use3929">
        <rect id="use3096-4" data-name="use3096" x="248.08" y="77.36" width="10.8" height="10.8" rx="2.1" ry="2.1"/>
      </g>
      <g id="use3931">
        <rect id="use3096-5" data-name="use3096" x="260.08" y="77.36" width="10.8" height="10.8" rx="2.1" ry="2.1"/>
      </g>
      <g id="use3933">
        <rect id="use3096-6" data-name="use3096" x="248.08" y="89.36" width="10.8" height="10.8" rx="2.1" ry="2.1"/>
      </g>
      <g id="use3935">
        <rect id="use3096-7" data-name="use3096" x="260.08" y="89.36" width="10.8" height="10.8" rx="2.1" ry="2.1"/>
      </g>
      <g id="use3941">
        <rect id="use3096-8" data-name="use3096" x="236.08" y="77.36" width="10.8" height="10.8" rx="2.1" ry="2.1"/>
      </g>
      <g id="use3943">
        <rect id="use3096-9" data-name="use3096" x="236.08" y="89.36" width="10.8" height="10.8" rx="2.1" ry="2.1"/>
      </g>
      <rect id="use3945" x="236.08" y="53.36" width="10.8" height="10.8" rx="2.1" ry="2.1"/>
      <g id="use3949">
        <rect id="use3096-10" data-name="use3096" x="260.08" y="101.36" width="10.8" height="10.8" rx="2.1" ry="2.1"/>
      </g>
      <rect id="use3953" x="272.08" y="65.36" width="10.8" height="22.8" rx="2.1" ry="2.1"/>
      <g id="use4010">
        <rect id="use3945-2" data-name="use3945" x="248.08" y="53.36" width="10.8" height="10.8" rx="2.1" ry="2.1"/>
      </g>
      <g id="use4012">
        <rect id="use3945-3" data-name="use3945" x="260.08" y="53.36" width="10.8" height="10.8" rx="2.1" ry="2.1"/>
      </g>
      <g id="use4014">
        <rect id="use3945-4" data-name="use3945" x="272.08" y="53.36" width="10.8" height="10.8" rx="2.1" ry="2.1"/>
      </g>
      <g id="use4018">
        <rect id="use3953-2" data-name="use3953" x="272.08" y="89.36" width="10.8" height="22.8" rx="2.1" ry="2.1"/>
      </g>
    </g>
    <rect id="rect2987-9" data-name="rect2987" x="14.38" y="53.36" width="10.8" height="10.8" rx="2.1" ry="2.1"/>
    <g id="use3757">
      <rect id="rect2987-10" data-name="rect2987" x="44.38" y="65.36" width="10.8" height="10.8" rx="2.1" ry="2.1"/>
    </g>
    <g id="use3759">
      <rect id="rect2987-11" data-name="rect2987" x="56.38" y="65.36" width="10.8" height="10.8" rx="2.1" ry="2.1"/>
    </g>
    <g id="use3761">
      <rect id="rect2987-12" data-name="rect2987" x="68.38" y="65.36" width="10.8" height="10.8" rx="2.1" ry="2.1"/>
    </g>
    <g id="use3763">
      <rect id="rect2987-13" data-name="rect2987" x="80.38" y="65.36" width="10.8" height="10.8" rx="2.1" ry="2.1"/>
    </g>
    <g id="use3765">
      <rect id="rect2987-14" data-name="rect2987" x="92.38" y="65.36" width="10.8" height="10.8" rx="2.1" ry="2.1"/>
    </g>
    <g id="use3767">
      <rect id="rect2987-15" data-name="rect2987" x="104.38" y="65.36" width="10.8" height="10.8" rx="2.1" ry="2.1"/>
    </g>
    <g id="use3769">
      <rect id="rect2987-16" data-name="rect2987" x="116.38" y="65.36" width="10.8" height="10.8" rx="2.1" ry="2.1"/>
    </g>
    <g id="use3771">
      <rect id="rect2987-17" data-name="rect2987" x="128.38" y="65.36" width="10.8" height="10.8" rx="2.1" ry="2.1"/>
    </g>
    <g id="use3773">
      <rect id="rect2987-18" data-name="rect2987" x="140.38" y="65.36" width="10.8" height="10.8" rx="2.1" ry="2.1"/>
    </g>
    <g id="use3775">
      <rect id="rect2987-19" data-name="rect2987" x="152.38" y="65.36" width="10.8" height="10.8" rx="2.1" ry="2.1"/>
    </g>
    <g id="use3777">
      <rect id="rect2987-20" data-name="rect2987" x="164.38" y="65.36" width="10.8" height="10.8" rx="2.1" ry="2.1"/>
    </g>
    <g id="use3779">
      <rect id="rect2987-21" data-name="rect2987" x="35.38" y="77.36" width="10.8" height="10.8" rx="2.1" ry="2.1"/>
    </g>
    <g id="use3781">
      <rect id="rect2987-22" data-name="rect2987" x="47.38" y="77.36" width="10.8" height="10.8" rx="2.1" ry="2.1"/>
    </g>
    <g id="use3783">
      <rect id="rect2987-23" data-name="rect2987" x="59.38" y="77.36" width="10.8" height="10.8" rx="2.1" ry="2.1"/>
    </g>
    <g id="use3785">
      <rect id="rect2987-24" data-name="rect2987" x="71.38" y="77.36" width="10.8" height="10.8" rx="2.1" ry="2.1"/>
    </g>
    <g id="use3787">
      <rect id="rect2987-25" data-name="rect2987" x="83.38" y="77.36" width="10.8" height="10.8" rx="2.1" ry="2.1"/>
    </g>
    <g id="use3789">
      <rect id="rect2987-26" data-name="rect2987" x="95.38" y="77.36" width="10.8" height="10.8" rx="2.1" ry="2.1"/>
    </g>
    <g id="use3791">
      <rect id="rect2987-27" data-name="rect2987" x="107.38" y="77.36" width="10.8" height="10.8" rx="2.1" ry="2.1"/>
    </g>
    <g id="use3793">
      <rect id="rect2987-28" data-name="rect2987" x="119.38" y="77.36" width="10.8" height="10.8" rx="2.1" ry="2.1"/>
    </g>
    <g id="use3795">
      <rect id="rect2987-29" data-name="rect2987" x="131.38" y="77.36" width="10.8" height="10.8" rx="2.1" ry="2.1"/>
    </g>
    <g id="use3797">
      <rect id="rect2987-30" data-name="rect2987" x="143.38" y="77.36" width="10.8" height="10.8" rx="2.1" ry="2.1"/>
    </g>
    <g id="use3799">
      <rect id="rect2987-31" data-name="rect2987" x="155.38" y="77.36" width="10.8" height="10.8" rx="2.1" ry="2.1"/>
    </g>
    <g id="use3803">
      <rect id="rect2987-32" data-name="rect2987" x="41.38" y="89.36" width="10.8" height="10.8" rx="2.1" ry="2.1"/>
    </g>
    <g id="use3805">
      <rect id="rect2987-33" data-name="rect2987" x="53.38" y="89.36" width="10.8" height="10.8" rx="2.1" ry="2.1"/>
    </g>
    <g id="use3807">
      <rect id="rect2987-34" data-name="rect2987" x="65.38" y="89.36" width="10.8" height="10.8" rx="2.1" ry="2.1"/>
    </g>
    <g id="use3809">
      <rect id="rect2987-35" data-name="rect2987" x="77.38" y="89.36" width="10.8" height="10.8" rx="2.1" ry="2.1"/>
    </g>
    <g id="use3811">
      <rect id="rect2987-36" data-name="rect2987" x="89.38" y="89.36" width="10.8" height="10.8" rx="2.1" ry="2.1"/>
    </g>
    <g id="use3813">
      <rect id="rect2987-37" data-name="rect2987" x="101.38" y="89.36" width="10.8" height="10.8" rx="2.1" ry="2.1"/>
    </g>
    <g id="use3815">
      <rect id="rect2987-38" data-name="rect2987" x="113.38" y="89.36" width="10.8" height="10.8" rx="2.1" ry="2.1"/>
    </g>
    <g id="use3817">
      <rect id="rect2987-39" data-name="rect2987" x="125.38" y="89.36" width="10.8" height="10.8" rx="2.1" ry="2.1"/>
    </g>
    <g id="use3819">
      <rect id="rect2987-40" data-name="rect2987" x="137.38" y="89.36" width="10.8" height="10.8" rx="2.1" ry="2.1"/>
    </g>
    <g id="use3821">
      <rect id="rect2987-41" data-name="rect2987" x="149.38" y="89.36" width="10.8" height="10.8" rx="2.1" ry="2.1"/>
    </g>
    <g id="use3825">
      <rect id="rect2987-42" data-name="rect2987" x="26.38" y="53.36" width="10.8" height="10.8" rx="2.1" ry="2.1"/>
    </g>
    <g id="use3827">
      <rect id="rect2987-43" data-name="rect2987" x="38.38" y="53.36" width="10.8" height="10.8" rx="2.1" ry="2.1"/>
    </g>
    <g id="use3829">
      <rect id="rect2987-44" data-name="rect2987" x="50.38" y="53.36" width="10.8" height="10.8" rx="2.1" ry="2.1"/>
    </g>
    <g id="use3831">
      <rect id="rect2987-45" data-name="rect2987" x="62.38" y="53.36" width="10.8" height="10.8" rx="2.1" ry="2.1"/>
    </g>
    <g id="use3833">
      <rect id="rect2987-46" data-name="rect2987" x="74.38" y="53.36" width="10.8" height="10.8" rx="2.1" ry="2.1"/>
    </g>
    <g id="use3835">
      <rect id="rect2987-47" data-name="rect2987" x="86.38" y="53.36" width="10.8" height="10.8" rx="2.1" ry="2.1"/>
    </g>
    <g id="use3837">
      <rect id="rect2987-48" data-name="rect2987" x="98.38" y="53.36" width="10.8" height="10.8" rx="2.1" ry="2.1"/>
    </g>
    <g id="use3839">
      <rect id="rect2987-49" data-name="rect2987" x="110.38" y="53.36" width="10.8" height="10.8" rx="2.1" ry="2.1"/>
    </g>
    <g id="use3841">
      <rect id="rect2987-50" data-name="rect2987" x="122.38" y="53.36" width="10.8" height="10.8" rx="2.1" ry="2.1"/>
    </g>
    <g id="use3843">
      <rect id="rect2987-51" data-name="rect2987" x="134.38" y="53.36" width="10.8" height="10.8" rx="2.1" ry="2.1"/>
    </g>
    <g id="use3847">
      <rect id="rect2987-52" data-name="rect2987" x="146.38" y="53.36" width="10.8" height="10.8" rx="2.1" ry="2.1"/>
    </g>
    <g id="use3849">
      <rect id="rect2987-53" data-name="rect2987" x="158.38" y="53.36" width="10.8" height="10.8" rx="2.1" ry="2.1"/>
    </g>
    <g id="use3853">
      <rect id="rect2987-54" data-name="rect2987" x="32.38" y="65.36" width="10.8" height="10.8" rx="2.1" ry="2.1"/>
    </g>
    <rect id="rect3924" x="14.38" y="77.36" width="19.8" height="10.8" rx="2.1" ry="2.1"/>
    <rect id="rect4074" x="14.38" y="65.36" width="16.8" height="10.8" rx="2.1" ry="2.1"/>
    <g id="use4373">
      <rect id="rect4074-2" data-name="rect4074" x="14.38" y="101.36" width="16.8" height="10.8" rx="2.1" ry="2.1"/>
    </g>
    <g id="use4375">
      <rect id="rect4074-3" data-name="rect4074" x="44.38" y="101.36" width="16.8" height="10.8" rx="2.1" ry="2.1"/>
    </g>
    <g id="use4377">
      <rect id="rect4074-4" data-name="rect4074" x="176.38" y="101.36" width="16.8" height="10.8" rx="2.1" ry="2.1"/>
    </g>
    <g id="use4379">
      <rect id="rect4074-5" data-name="rect4074" x="146.38" y="101.38" width="16.8" height="10.8" rx="2.1" ry="2.1"/>
    </g>
    <rect id="use3907" x="62.38" y="101.36" width="82.5" height="10.8" rx="2.1" ry="2.1"/>
  </g>
  <g id="g3130">
    <rect id="rect3132" x="176.38" y="65.36" width="16.8" height="10.8" rx="2.1" ry="2.1"/>
    <rect id="rect3134" x="14.38" y="89.36" width="25.8" height="10.8" rx="2.1" ry="2.1"/>
    <rect id="rect3136" x="167.38" y="77.36" width="25.8" height="10.8" rx="2.1" ry="2.1"/>
    <rect id="rect3911" x="161.38" y="89.36" width="31.8" height="10.8" rx="2.1" ry="2.1"/>
    <rect id="rect4530" x="170.38" y="53.36" width="22.8" height="10.8" rx="2.1" ry="2.1"/>
  </g>
  <g id="layer2">
    <rect id="use3891" x="14.38" y="89.36" width="13.8" height="10.8" rx="2.1" ry="2.1"/>
    <rect id="use3893" x="29.38" y="89.36" width="10.8" height="10.8" rx="2.1" ry="2.1"/>
    <path id="rect3934" d="M178.18,65.37c-1.01,.1-1.8,.96-1.8,2v6.99c0,1.2,.6,1.8,1.5,1.8s1.5,.9,1.5,1.8v3.36s.01,3.52,.01,3.52v1.32c0,1.11,.88,2,1.99,2h9.8c1.11,0,2-.89,2-2v-18.8c0-1.11-.89-2-2-2h-12.8c-.07,0-.13,0-.2,0h0Z"/>
    <rect id="use4003" x="167.38" y="77.36" width="10.8" height="10.8" rx="2.1" ry="2.1"/>
    <rect id="rect4476" x="170.38" y="53.36" width="22.8" height="10.8" rx="2.1" ry="2.1"/>
    <rect id="rect4479" x="161.38" y="89.36" width="31.8" height="10.8" rx="2.1" ry="2.1"/>
  </g>
  <g id="g4497">
    <rect id="rect4501" x="14.38" y="89.36" width="25.8" height="10.8" rx="2.1" ry="2.1"/>
    <rect id="rect4507" x="161.38" y="89.36" width="31.8" height="10.8" rx="2.1" ry="2.1"/>
    <path id="rect4513" d="M191.18,76.15l-12.71,1.21"/>
    <path id="use4518" d="M176.38,75.26v-7.8c0-1.16,.94-2.1,2.1-2.1h12.6c1.16,0,2.1,.94,2.1,2.1v18.6c0,1.16-.94,2.1-2.1,2.1h-21.6c-1.16,0-2.1-.94-2.1-2.1v-6.6c0-1.16,.94-2.1,2.1-2.1h4.8c1.16,0,2.1-.94,2.1-2.1Z"/>
    <rect id="use3895" x="182.38" y="53.36" width="10.8" height="10.8" rx="2.1" ry="2.1"/>
    <rect id="rect4509" x="170.38" y="53.36" width="10.8" height="10.8" rx="2.1" ry="2.1"/>
  </g>
  <g id="g4285">
    <rect id="rect4287" x="14.38" y="89.36" width="25.8" height="10.8" rx="2.1" ry="2.1"/>
    <rect id="rect4289" x="161.38" y="89.36" width="31.8" height="10.8" rx="2.1" ry="2.1"/>
    <path id="path4291" d="M191.18,76.15l-12.71,1.21"/>
    <path id="path4293" d="M176.38,75.26v-7.8c0-1.16,.94-2.1,2.1-2.1h12.6c1.16,0,2.1,.94,2.1,2.1v18.6c0,1.16-.94,2.1-2.1,2.1h-21.6c-1.16,0-2.1-.94-2.1-2.1v-6.6c0-1.16,.94-2.1,2.1-2.1h4.8c1.16,0,2.1-.94,2.1-2.1Z"/>
    <rect id="rect4297" x="170.38" y="53.36" width="22.8" height="10.8" rx="2.1" ry="2.1"/>
    <rect id="use4299" x="32.38" y="101.36" width="10.8" height="10.8" rx="2.1" ry="2.1"/>
    <rect id="use4301" x="164.38" y="101.36" width="10.8" height="10.8" rx="2.1" ry="2.1"/>
  </g>
  <g id="g5141">
    <rect id="rect5143" x="14.38" y="89.36" width="25.8" height="10.8" rx="2.1" ry="2.1"/>
    <rect id="rect5145" x="161.38" y="89.36" width="19.8" height="10.8" rx="2.1" ry="2.1"/>
    <path id="path5149" d="M176.38,75.26v-7.8c0-1.16,.94-2.1,2.1-2.1h12.6c1.16,0,2.1,.94,2.1,2.1v18.6c0,1.16-.94,2.1-2.1,2.1h-21.6c-1.16,0-2.1-.94-2.1-2.1v-6.6c0-1.16,.94-2.1,2.1-2.1h4.8c1.16,0,2.1-.94,2.1-2.1Z"/>
    <rect id="rect5151" x="170.38" y="53.36" width="22.8" height="10.8" rx="2.1" ry="2.1"/>
  </g>
</svg>