<?xml version="1.0" encoding="UTF-8"?>
<svg id="mac_keys" data-name="mac keys" xmlns="http://www.w3.org/2000/svg" viewBox="0 0 300 150">
 
  <path d="M212.93,80.76h22.85c.64,0,1.15,.51,1.15,1.15v8.16c0,.64-.51,1.15-1.15,1.15h-22.85c-.64,0-1.15-.51-1.15-1.15v-8.16c0-.64,.51-1.15,1.15-1.15Z"/>
  <path d="M68.61,69.32h17.01c.64,0,1.15,.53,1.15,1.15v8.09c0,.63-.51,1.15-1.15,1.15h-17.01c-.63,0-1.15-.53-1.15-1.15v-8.09c0-.63,.53-1.15,1.15-1.15Z"/>
  <path d="M95.01,80.76h8.19c.63,0,1.13,.51,1.13,1.15v8.16c0,.64-.51,1.15-1.13,1.15h-8.19c-.63,0-1.13-.51-1.13-1.15v-8.16c0-.64,.51-1.15,1.13-1.15Z"/>
  <path d="M106.8,80.76h8.17c.64,0,1.15,.51,1.15,1.15v8.16c0,.64-.51,1.15-1.15,1.15h-8.17c-.63,0-1.13-.51-1.13-1.15v-8.16c0-.64,.51-1.15,1.13-1.15Z"/>
  <path d="M68.58,46.53h8.17c.64,0,1.15,.51,1.15,1.15v8.21c0,.63-.51,1.15-1.15,1.15h-8.17c-.63,0-1.13-.53-1.13-1.15v-8.21c0-.64,.51-1.15,1.13-1.15Z"/>
  <path d="M118.6,80.76h8.17c.63,0,1.15,.51,1.15,1.15v8.16c0,.64-.53,1.15-1.15,1.15h-8.17c-.63,0-1.13-.51-1.13-1.15v-8.16c0-.64,.51-1.15,1.13-1.15Z"/>
  <path d="M130.39,80.76h8.17c.63,0,1.13,.51,1.13,1.15v8.16c0,.64-.51,1.15-1.13,1.15h-8.17c-.63,0-1.15-.51-1.15-1.15v-8.16c0-.64,.53-1.15,1.15-1.15Z"/>
  <path d="M142.17,80.76h8.19c.63,0,1.13,.51,1.13,1.15v8.16c0,.64-.51,1.15-1.13,1.15h-8.19c-.63,0-1.13-.51-1.13-1.15v-8.16c0-.64,.51-1.15,1.13-1.15Z"/>
  <path d="M153.96,80.76h8.19c.63,0,1.13,.51,1.13,1.15v8.16c0,.64-.51,1.15-1.13,1.15h-8.19c-.63,0-1.13-.51-1.13-1.15v-8.16c0-.64,.51-1.15,1.13-1.15Z"/>
  <path d="M165.75,80.76h8.17c.64,0,1.15,.51,1.15,1.15v8.16c0,.64-.51,1.15-1.15,1.15h-8.17c-.63,0-1.13-.51-1.13-1.15v-8.16c0-.64,.51-1.15,1.13-1.15Z"/>
  <path d="M177.55,80.76h8.17c.63,0,1.13,.51,1.13,1.15v8.16c0,.64-.51,1.15-1.13,1.15h-8.17c-.63,0-1.15-.51-1.15-1.15v-8.16c0-.64,.53-1.15,1.15-1.15Z"/>
  <path d="M189.34,80.76h8.17c.63,0,1.13,.51,1.13,1.15v8.16c0,.64-.51,1.15-1.13,1.15h-8.17c-.64,0-1.15-.51-1.15-1.15v-8.16c0-.64,.51-1.15,1.15-1.15Z"/>
  <path d="M201.12,80.76h8.19c.63,0,1.13,.51,1.13,1.15v8.16c0,.64-.51,1.15-1.13,1.15h-8.19c-.63,0-1.13-.51-1.13-1.15v-8.16c0-.64,.51-1.15,1.13-1.15Z"/>
  <path d="M104.02,92.26h11.15c.64,0,1.15,.53,1.15,1.17v8.26c0,.64-.51,1.17-1.15,1.17h-11.15c-.63,0-1.15-.53-1.15-1.17v-8.26c0-.64,.53-1.17,1.15-1.17Z"/>
  <path d="M68.69,80.76h22.86c.63,0,1.15,.51,1.15,1.15v8.16c0,.64-.53,1.15-1.15,1.15h-22.86c-.63,0-1.15-.51-1.15-1.15v-8.16c0-.64,.53-1.15,1.15-1.15Z"/>
  <path d="M86.14,57.74h8.17c.64,0,1.15,.53,1.15,1.17v8.31c0,.64-.51,1.15-1.15,1.15h-8.17c-.63,0-1.13-.51-1.13-1.15v-8.31c0-.64,.51-1.17,1.13-1.17Z"/>
  <path d="M97.95,57.74h8.17c.63,0,1.15,.53,1.15,1.17v8.31c0,.64-.53,1.15-1.15,1.15h-8.17c-.63,0-1.15-.51-1.15-1.15v-8.31c0-.64,.53-1.17,1.15-1.17Z"/>
  <path d="M68.66,92.26h8.16c.64,0,1.15,.53,1.15,1.17v8.26c0,.64-.51,1.17-1.15,1.17h-8.16c-.64,0-1.15-.53-1.15-1.17v-8.26c0-.64,.51-1.17,1.15-1.17Z"/>
  <path d="M177.71,92.26h11.17c.63,0,1.13,.53,1.13,1.15v8.13c0,.63-.51,1.15-1.13,1.15h-11.17c-.63,0-1.15-.53-1.15-1.15v-8.13c0-.63,.53-1.15,1.15-1.15Z"/>
  <path d="M80.45,92.26h8.16c.63,0,1.15,.53,1.15,1.17v8.26c0,.64-.53,1.17-1.15,1.17h-8.16c-.64,0-1.15-.53-1.15-1.17v-8.26c0-.64,.51-1.17,1.15-1.17Z"/>
  <path d="M92.23,92.26h8.17c.63,0,1.15,.53,1.15,1.17v8.26c0,.64-.53,1.17-1.15,1.17h-8.17c-.63,0-1.15-.53-1.15-1.17v-8.26c0-.64,.53-1.17,1.15-1.17Z"/>
  <path d="M192.37,92.26h8.19c.63,0,1.13,.53,1.13,1.15v8.16c0,.64-.51,1.15-1.13,1.15h-8.19c-.63,0-1.13-.51-1.13-1.15v-8.16c0-.63,.51-1.15,1.13-1.15Z"/>
  <path d="M204.16,92.26h8.19c.63,0,1.13,.53,1.13,1.15v8.16c0,.64-.51,1.15-1.13,1.15h-8.19c-.63,0-1.13-.51-1.13-1.15v-8.16c0-.63,.51-1.15,1.13-1.15Z"/>
  <path d="M227.55,92.26h8.17c.63,0,1.13,.53,1.13,1.15v8.16c0,.64-.51,1.15-1.13,1.15h-8.17c-.64,0-1.15-.51-1.15-1.15v-8.16c0-.63,.51-1.15,1.15-1.15Z"/>
  <path d="M215.86,92.26h8.19c.63,0,1.13,.53,1.13,1.15v8.16c0,.64-.51,1.15-1.13,1.15h-8.19c-.63,0-1.13-.51-1.13-1.15v-8.16c0-.63,.51-1.15,1.13-1.15Z"/>
  <path d="M109.76,57.74h8.16c.64,0,1.15,.53,1.15,1.17v8.31c0,.64-.51,1.15-1.15,1.15h-8.16c-.64,0-1.15-.51-1.15-1.15v-8.31c0-.64,.51-1.17,1.15-1.17Z"/>
  <path d="M121.56,57.74h8.17c.63,0,1.15,.53,1.15,1.17v8.31c0,.64-.53,1.15-1.15,1.15h-8.17c-.63,0-1.15-.51-1.15-1.15v-8.31c0-.64,.53-1.17,1.15-1.17Z"/>
  <path d="M133.37,57.74h8.16c.64,0,1.15,.53,1.15,1.17v8.31c0,.64-.51,1.15-1.15,1.15h-8.16c-.64,0-1.15-.51-1.15-1.15v-8.31c0-.64,.51-1.17,1.15-1.17Z"/>
  <path d="M145.16,57.74h8.17c.63,0,1.15,.53,1.15,1.17v8.31c0,.64-.53,1.15-1.15,1.15h-8.17c-.63,0-1.15-.51-1.15-1.15v-8.31c0-.64,.53-1.17,1.15-1.17Z"/>
  <path d="M156.97,57.74h8.16c.64,0,1.15,.53,1.15,1.17v8.31c0,.64-.51,1.15-1.15,1.15h-8.16c-.64,0-1.15-.51-1.15-1.15v-8.31c0-.64,.51-1.17,1.15-1.17Z"/>
  <path d="M168.76,57.74h8.17c.63,0,1.15,.53,1.15,1.17v8.31c0,.64-.53,1.15-1.15,1.15h-8.17c-.63,0-1.15-.51-1.15-1.15v-8.31c0-.64,.53-1.17,1.15-1.17Z"/>
  <path d="M180.57,57.74h8.17c.63,0,1.15,.53,1.15,1.17v8.31c0,.64-.53,1.15-1.15,1.15h-8.17c-.64,0-1.15-.51-1.15-1.15v-8.31c0-.64,.51-1.17,1.15-1.17Z"/>
  <path d="M192.37,57.74h8.17c.64,0,1.15,.53,1.15,1.17v8.31c0,.64-.51,1.15-1.15,1.15h-8.17c-.63,0-1.15-.51-1.15-1.15v-8.31c0-.64,.53-1.17,1.15-1.17Z"/>
  <path d="M204.18,57.74h8.17c.63,0,1.15,.53,1.15,1.17v8.31c0,.64-.53,1.15-1.15,1.15h-8.17c-.64,0-1.15-.51-1.15-1.15v-8.31c0-.64,.51-1.17,1.15-1.17Z"/>
  <path d="M89.15,69.32h8.21c.63,0,1.13,.53,1.13,1.15v8.09c0,.63-.51,1.15-1.13,1.15h-8.21c-.61,0-1.12-.53-1.12-1.15v-8.09c0-.63,.51-1.15,1.12-1.15Z"/>
  <path d="M92.03,46.53h8.17c.63,0,1.15,.51,1.15,1.15v8.21c0,.63-.53,1.15-1.15,1.15h-8.17c-.63,0-1.15-.53-1.15-1.15v-8.21c0-.64,.53-1.15,1.15-1.15Z"/>
  <path d="M100.95,69.32h8.21c.61,0,1.12,.53,1.12,1.15v8.09c0,.63-.51,1.15-1.12,1.15h-8.21c-.63,0-1.13-.53-1.13-1.15v-8.09c0-.63,.51-1.15,1.13-1.15Z"/>
  <path d="M103.82,46.53h8.17c.63,0,1.15,.51,1.15,1.15v8.21c0,.63-.53,1.15-1.15,1.15h-8.17c-.63,0-1.15-.53-1.15-1.15v-8.21c0-.64,.53-1.15,1.15-1.15Z"/>
  <path d="M112.74,69.32h8.19c.63,0,1.13,.53,1.13,1.15v8.09c0,.63-.51,1.15-1.13,1.15h-8.19c-.63,0-1.13-.53-1.13-1.15v-8.09c0-.63,.51-1.15,1.13-1.15Z"/>
  <path d="M115.62,46.53h8.17c.63,0,1.15,.51,1.15,1.15v8.21c0,.63-.53,1.15-1.15,1.15h-8.17c-.63,0-1.15-.53-1.15-1.15v-8.21c0-.64,.53-1.15,1.15-1.15Z"/>
  <path d="M124.53,69.32h8.19c.63,0,1.13,.53,1.13,1.15v8.09c0,.63-.51,1.15-1.13,1.15h-8.19c-.63,0-1.13-.53-1.13-1.15v-8.09c0-.63,.51-1.15,1.13-1.15Z"/>
  <path d="M127.41,46.53h8.17c.63,0,1.15,.51,1.15,1.15v8.21c0,.63-.53,1.15-1.15,1.15h-8.17c-.63,0-1.15-.53-1.15-1.15v-8.21c0-.64,.53-1.15,1.15-1.15Z"/>
  <path d="M136.31,69.32h8.21c.63,0,1.13,.53,1.13,1.15v8.09c0,.63-.51,1.15-1.13,1.15h-8.21c-.61,0-1.12-.53-1.12-1.15v-8.09c0-.63,.51-1.15,1.12-1.15Z"/>
  <path d="M139.21,46.53h8.17c.63,0,1.15,.51,1.15,1.15v8.21c0,.63-.53,1.15-1.15,1.15h-8.17c-.63,0-1.15-.53-1.15-1.15v-8.21c0-.64,.53-1.15,1.15-1.15Z"/>
  <path d="M148.1,69.32h8.21c.63,0,1.13,.53,1.13,1.15v8.09c0,.63-.51,1.15-1.13,1.15h-8.21c-.63,0-1.13-.53-1.13-1.15v-8.09c0-.63,.51-1.15,1.13-1.15Z"/>
  <path d="M151,46.53h8.17c.63,0,1.15,.51,1.15,1.15v8.21c0,.63-.53,1.15-1.15,1.15h-8.17c-.63,0-1.15-.53-1.15-1.15v-8.21c0-.64,.53-1.15,1.15-1.15Z"/>
  <path d="M159.9,69.32h8.21c.61,0,1.12,.53,1.12,1.15v8.09c0,.63-.51,1.15-1.12,1.15h-8.21c-.63,0-1.13-.53-1.13-1.15v-8.09c0-.63,.51-1.15,1.13-1.15Z"/>
  <path d="M162.79,46.53h8.17c.63,0,1.15,.51,1.15,1.15v8.21c0,.63-.53,1.15-1.15,1.15h-8.17c-.63,0-1.15-.53-1.15-1.15v-8.21c0-.64,.53-1.15,1.15-1.15Z"/>
  <path d="M171.69,69.32h8.19c.63,0,1.13,.53,1.13,1.15v8.09c0,.63-.51,1.15-1.13,1.15h-8.19c-.63,0-1.13-.53-1.13-1.15v-8.09c0-.63,.51-1.15,1.13-1.15Z"/>
  <path d="M183.49,69.32h8.19c.63,0,1.13,.53,1.13,1.15v8.09c0,.63-.51,1.15-1.13,1.15h-8.19c-.63,0-1.13-.53-1.13-1.15v-8.09c0-.63,.51-1.15,1.13-1.15Z"/>
  <path d="M174.59,46.53h8.17c.63,0,1.15,.51,1.15,1.15v8.21c0,.63-.53,1.15-1.15,1.15h-8.17c-.63,0-1.15-.53-1.15-1.15v-8.21c0-.64,.53-1.15,1.15-1.15Z"/>
  <path d="M207.06,69.32h8.21c.61,0,1.12,.53,1.12,1.15v8.09c0,.63-.51,1.15-1.12,1.15h-8.21c-.63,0-1.13-.53-1.13-1.15v-8.09c0-.63,.51-1.15,1.13-1.15Z"/>
  <path d="M186.38,46.53h8.17c.63,0,1.15,.51,1.15,1.15v8.21c0,.63-.53,1.15-1.15,1.15h-8.17c-.63,0-1.15-.53-1.15-1.15v-8.21c0-.64,.53-1.15,1.15-1.15Z"/>
  <path d="M195.26,69.32h8.21c.63,0,1.13,.53,1.13,1.15v8.09c0,.63-.51,1.15-1.13,1.15h-8.21c-.63,0-1.12-.53-1.12-1.15v-8.09c0-.63,.49-1.15,1.12-1.15Z"/>
  <path d="M198.17,46.53h8.17c.63,0,1.15,.51,1.15,1.15v8.21c0,.63-.53,1.15-1.15,1.15h-8.17c-.63,0-1.15-.53-1.15-1.15v-8.21c0-.64,.53-1.15,1.15-1.15Z"/>
  <path d="M209.97,46.53h8.17c.63,0,1.15,.51,1.15,1.15v8.21c0,.63-.53,1.15-1.15,1.15h-8.17c-.63,0-1.15-.53-1.15-1.15v-8.21c0-.64,.53-1.15,1.15-1.15Z"/>
  <path d="M215.77,57.74h8.16c.63,0,1.15,.53,1.15,1.17v8.26c0,.64-.53,1.15-1.15,1.15h-8.16c-.64,0-1.15-.51-1.15-1.15v-8.26c0-.64,.51-1.17,1.15-1.17Z"/>
  <path d="M227.55,57.74h8.17c.63,0,1.13,.53,1.13,1.17v8.26c0,.64-.51,1.15-1.13,1.15h-8.17c-.63,0-1.15-.51-1.15-1.15v-8.26c0-.64,.53-1.17,1.15-1.17Z"/>
  <path d="M68.46,57.74h14.39c.64,0,1.15,.53,1.15,1.18v8.37c0,.64-.51,1.17-1.15,1.17h-14.39c-.63,0-1.15-.53-1.15-1.17v-8.37c0-.66,.53-1.18,1.15-1.18Z"/>
  <path d="M80.19,46.53h8.41c.64,0,1.17,.53,1.17,1.17v8.32c0,.64-.53,1.17-1.17,1.17h-8.41c-.64,0-1.17-.53-1.17-1.17v-8.32c0-.64,.53-1.17,1.17-1.17Z"/>
  <path d="M221.38,46.53h14.39c.64,0,1.15,.53,1.15,1.15v8.26c0,.64-.51,1.15-1.15,1.15h-14.39c-.63,0-1.15-.51-1.15-1.15v-8.26c0-.63,.53-1.15,1.15-1.15Z"/>
  <path d="M218.59,69.32h17.17c.64,0,1.17,.53,1.17,1.17v8.21c0,.64-.53,1.15-1.17,1.15h-17.17c-.64,0-1.17-.51-1.17-1.15v-8.21c0-.64,.53-1.17,1.17-1.17Z"/>
  <path d="M118.46,92.26h55.83c.64,0,1.17,.54,1.17,1.18v8.37c0,.64-.53,1.18-1.17,1.18h-55.83c-.64,0-1.17-.54-1.17-1.18v-8.37c0-.64,.53-1.18,1.17-1.18Z"/>
</svg>