<?xml version="1.0" encoding="UTF-8"?>
<svg id="tenkeyless_keys" data-name="tenkeyless keys" xmlns="http://www.w3.org/2000/svg" viewBox="0 0 300 150">
 
  <g id="layer1">
    <rect id="rect2987" x="43.61" y="54.95" width="10.69" height="10.69" rx="2.08" ry="2.08"/>
    <g id="use3757">
      <rect id="rect2987-2" data-name="rect2987" x="73.31" y="66.83" width="10.69" height="10.69" rx="2.08" ry="2.08"/>
    </g>
    <g id="use3759">
      <rect id="rect2987-3" data-name="rect2987" x="85.19" y="66.83" width="10.69" height="10.69" rx="2.08" ry="2.08"/>
    </g>
    <g id="use3761">
      <rect id="rect2987-4" data-name="rect2987" x="97.07" y="66.83" width="10.69" height="10.69" rx="2.08" ry="2.08"/>
    </g>
    <g id="use3763">
      <rect id="rect2987-5" data-name="rect2987" x="108.95" y="66.83" width="10.69" height="10.69" rx="2.08" ry="2.08"/>
    </g>
    <g id="use3765">
      <rect id="rect2987-6" data-name="rect2987" x="120.83" y="66.83" width="10.69" height="10.69" rx="2.08" ry="2.08"/>
    </g>
    <g id="use3767">
      <rect id="rect2987-7" data-name="rect2987" x="132.71" y="66.83" width="10.69" height="10.69" rx="2.08" ry="2.08"/>
    </g>
    <g id="use3769">
      <rect id="rect2987-8" data-name="rect2987" x="144.59" y="66.83" width="10.69" height="10.69" rx="2.08" ry="2.08"/>
    </g>
    <g id="use3771">
      <rect id="rect2987-9" data-name="rect2987" x="156.47" y="66.83" width="10.69" height="10.69" rx="2.08" ry="2.08"/>
    </g>
    <g id="use3773">
      <rect id="rect2987-10" data-name="rect2987" x="168.35" y="66.83" width="10.69" height="10.69" rx="2.08" ry="2.08"/>
    </g>
    <g id="use3775">
      <rect id="rect2987-11" data-name="rect2987" x="180.23" y="66.83" width="10.69" height="10.69" rx="2.08" ry="2.08"/>
    </g>
    <g id="use3777">
      <rect id="rect2987-12" data-name="rect2987" x="192.11" y="66.83" width="10.69" height="10.69" rx="2.08" ry="2.08"/>
    </g>
    <g id="use3779">
      <rect id="rect2987-13" data-name="rect2987" x="64.4" y="78.71" width="10.69" height="10.69" rx="2.08" ry="2.08"/>
    </g>
    <g id="use3781">
      <rect id="rect2987-14" data-name="rect2987" x="76.28" y="78.71" width="10.69" height="10.69" rx="2.08" ry="2.08"/>
    </g>
    <g id="use3783">
      <rect id="rect2987-15" data-name="rect2987" x="88.16" y="78.71" width="10.69" height="10.69" rx="2.08" ry="2.08"/>
    </g>
    <g id="use3785">
      <rect id="rect2987-16" data-name="rect2987" x="100.04" y="78.71" width="10.69" height="10.69" rx="2.08" ry="2.08"/>
    </g>
    <g id="use3787">
      <rect id="rect2987-17" data-name="rect2987" x="111.92" y="78.71" width="10.69" height="10.69" rx="2.08" ry="2.08"/>
    </g>
    <g id="use3789">
      <rect id="rect2987-18" data-name="rect2987" x="123.8" y="78.71" width="10.69" height="10.69" rx="2.08" ry="2.08"/>
    </g>
    <g id="use3791">
      <rect id="rect2987-19" data-name="rect2987" x="135.68" y="78.71" width="10.69" height="10.69" rx="2.08" ry="2.08"/>
    </g>
    <g id="use3793">
      <rect id="rect2987-20" data-name="rect2987" x="147.56" y="78.71" width="10.69" height="10.69" rx="2.08" ry="2.08"/>
    </g>
    <g id="use3795">
      <rect id="rect2987-21" data-name="rect2987" x="159.44" y="78.71" width="10.69" height="10.69" rx="2.08" ry="2.08"/>
    </g>
    <g id="use3797">
      <rect id="rect2987-22" data-name="rect2987" x="171.32" y="78.71" width="10.69" height="10.69" rx="2.08" ry="2.08"/>
    </g>
    <g id="use3799">
      <rect id="rect2987-23" data-name="rect2987" x="183.2" y="78.71" width="10.69" height="10.69" rx="2.08" ry="2.08"/>
    </g>
    <g id="use3803">
      <rect id="rect2987-24" data-name="rect2987" x="70.34" y="90.59" width="10.69" height="10.69" rx="2.08" ry="2.08"/>
    </g>
    <g id="use3805">
      <rect id="rect2987-25" data-name="rect2987" x="82.22" y="90.59" width="10.69" height="10.69" rx="2.08" ry="2.08"/>
    </g>
    <g id="use3807">
      <rect id="rect2987-26" data-name="rect2987" x="94.1" y="90.59" width="10.69" height="10.69" rx="2.08" ry="2.08"/>
    </g>
    <g id="use3809">
      <rect id="rect2987-27" data-name="rect2987" x="105.98" y="90.59" width="10.69" height="10.69" rx="2.08" ry="2.08"/>
    </g>
    <g id="use3811">
      <rect id="rect2987-28" data-name="rect2987" x="117.86" y="90.59" width="10.69" height="10.69" rx="2.08" ry="2.08"/>
    </g>
    <g id="use3813">
      <rect id="rect2987-29" data-name="rect2987" x="129.74" y="90.59" width="10.69" height="10.69" rx="2.08" ry="2.08"/>
    </g>
    <g id="use3815">
      <rect id="rect2987-30" data-name="rect2987" x="141.62" y="90.59" width="10.69" height="10.69" rx="2.08" ry="2.08"/>
    </g>
    <g id="use3817">
      <rect id="rect2987-31" data-name="rect2987" x="153.5" y="90.59" width="10.69" height="10.69" rx="2.08" ry="2.08"/>
    </g>
    <g id="use3819">
      <rect id="rect2987-32" data-name="rect2987" x="165.38" y="90.59" width="10.69" height="10.69" rx="2.08" ry="2.08"/>
    </g>
    <g id="use3821">
      <rect id="rect2987-33" data-name="rect2987" x="177.26" y="90.59" width="10.69" height="10.69" rx="2.08" ry="2.08"/>
    </g>
    <g id="use3825">
      <rect id="rect2987-34" data-name="rect2987" x="55.49" y="54.95" width="10.69" height="10.69" rx="2.08" ry="2.08"/>
    </g>
    <g id="use3827">
      <rect id="rect2987-35" data-name="rect2987" x="67.37" y="54.95" width="10.69" height="10.69" rx="2.08" ry="2.08"/>
    </g>
    <g id="use3829">
      <rect id="rect2987-36" data-name="rect2987" x="79.25" y="54.95" width="10.69" height="10.69" rx="2.08" ry="2.08"/>
    </g>
    <g id="use3831">
      <rect id="rect2987-37" data-name="rect2987" x="91.13" y="54.95" width="10.69" height="10.69" rx="2.08" ry="2.08"/>
    </g>
    <g id="use3833">
      <rect id="rect2987-38" data-name="rect2987" x="103.01" y="54.95" width="10.69" height="10.69" rx="2.08" ry="2.08"/>
    </g>
    <g id="use3835">
      <rect id="rect2987-39" data-name="rect2987" x="114.89" y="54.95" width="10.69" height="10.69" rx="2.08" ry="2.08"/>
    </g>
    <g id="use3837">
      <rect id="rect2987-40" data-name="rect2987" x="126.77" y="54.95" width="10.69" height="10.69" rx="2.08" ry="2.08"/>
    </g>
    <g id="use3839">
      <rect id="rect2987-41" data-name="rect2987" x="138.65" y="54.95" width="10.69" height="10.69" rx="2.08" ry="2.08"/>
    </g>
    <g id="use3841">
      <rect id="rect2987-42" data-name="rect2987" x="150.53" y="54.95" width="10.69" height="10.69" rx="2.08" ry="2.08"/>
    </g>
    <g id="use3843">
      <rect id="rect2987-43" data-name="rect2987" x="162.41" y="54.95" width="10.69" height="10.69" rx="2.08" ry="2.08"/>
    </g>
    <g id="use3847">
      <rect id="rect2987-44" data-name="rect2987" x="174.29" y="54.95" width="10.69" height="10.69" rx="2.08" ry="2.08"/>
    </g>
    <g id="use3849">
      <rect id="rect2987-45" data-name="rect2987" x="186.17" y="54.95" width="10.69" height="10.69" rx="2.08" ry="2.08"/>
    </g>
    <g id="use3853">
      <rect id="rect2987-46" data-name="rect2987" x="61.43" y="66.83" width="10.69" height="10.69" rx="2.08" ry="2.08"/>
    </g>
    <rect id="use3883" x="43.61" y="102.47" width="13.66" height="10.69" rx="2.08" ry="2.08"/>
    <rect id="rect3924" x="43.61" y="78.71" width="19.6" height="10.69" rx="2.08" ry="2.08"/>
    <g id="use4064">
      <rect id="use3883-2" data-name="use3883" x="58.46" y="102.47" width="13.66" height="10.69" rx="2.08" ry="2.08"/>
    </g>
    <g id="use4066">
      <rect id="use3883-3" data-name="use3883" x="73.31" y="102.47" width="13.66" height="10.69" rx="2.08" ry="2.08"/>
    </g>
    <g id="use4072">
      <rect id="use3883-4" data-name="use3883" x="206.96" y="102.47" width="13.66" height="10.69" rx="2.08" ry="2.08"/>
    </g>
    <rect id="rect4074" x="43.61" y="66.83" width="16.63" height="10.69" rx="2.08" ry="2.08"/>
  </g>
  <g id="use3845">
    <rect id="rect2987-47" data-name="rect2987" x="67.37" y="40.1" width="10.69" height="10.69" rx="2.08" ry="2.08"/>
  </g>
  <g id="use3855">
    <rect id="rect2987-48" data-name="rect2987" x="79.25" y="40.1" width="10.69" height="10.69" rx="2.08" ry="2.08"/>
  </g>
  <g id="use3857">
    <rect id="rect2987-49" data-name="rect2987" x="91.13" y="40.1" width="10.69" height="10.69" rx="2.08" ry="2.08"/>
  </g>
  <g id="use3859">
    <rect id="rect2987-50" data-name="rect2987" x="103.01" y="40.1" width="10.69" height="10.69" rx="2.08" ry="2.08"/>
  </g>
  <rect id="use3861" x="120.83" y="40.1" width="10.69" height="10.69" rx="2.08" ry="2.08"/>
  <g id="use3869">
    <rect id="rect2987-51" data-name="rect2987" x="174.29" y="40.1" width="10.69" height="10.69" rx="2.08" ry="2.08"/>
  </g>
  <g id="use3873">
    <rect id="rect2987-52" data-name="rect2987" x="186.17" y="40.1" width="10.69" height="10.69" rx="2.08" ry="2.08"/>
  </g>
  <g id="use3877">
    <rect id="rect2987-53" data-name="rect2987" x="209.93" y="40.1" width="10.69" height="10.69" rx="2.08" ry="2.08"/>
  </g>
  <rect id="use3879" x="43.61" y="40.1" width="10.69" height="10.69" rx="2.08" ry="2.08"/>
  <g id="use4054">
    <rect id="rect2987-54" data-name="rect2987" x="198.05" y="40.1" width="10.69" height="10.69" rx="2.08" ry="2.08"/>
  </g>
  <g id="use4257">
    <rect id="use3861-2" data-name="use3861" x="132.71" y="40.1" width="10.69" height="10.69" rx="2.08" ry="2.08"/>
  </g>
  <g id="use4259">
    <rect id="use3861-3" data-name="use3861" x="144.59" y="40.1" width="10.69" height="10.69" rx="2.08" ry="2.08"/>
  </g>
  <g id="use4261">
    <rect id="use3861-4" data-name="use3861" x="156.47" y="40.1" width="10.69" height="10.69" rx="2.08" ry="2.08"/>
  </g>
  <rect id="rect3132" x="204.1" y="66.81" width="16.63" height="10.69" rx="2.08" ry="2.08"/>
  <rect id="rect3134" x="43.61" y="90.59" width="25.54" height="10.69" rx="2.08" ry="2.08"/>
  <rect id="rect3136" x="195.08" y="78.71" width="25.54" height="10.69" rx="2.08" ry="2.08"/>
  <g id="use3144">
    <rect id="use3883-5" data-name="use3883" x="162.41" y="102.47" width="13.66" height="10.69" rx="2.08" ry="2.08"/>
  </g>
  <rect id="use3895" x="198.05" y="54.95" width="22.57" height="10.69" rx="2.08" ry="2.08"/>
  <rect id="rect3911" x="189.14" y="90.59" width="31.48" height="10.69" rx="2.08" ry="2.08"/>
  <g id="use4070">
    <rect id="use3883-6" data-name="use3883" x="192.11" y="102.47" width="13.66" height="10.69" rx="2.08" ry="2.08"/>
  </g>
  <g id="use4068">
    <rect id="use3883-7" data-name="use3883" x="177.26" y="102.47" width="13.66" height="10.69" rx="2.08" ry="2.08"/>
  </g>
  <rect id="use3907" x="88.16" y="102.47" width="73.06" height="10.69" rx="2.08" ry="2.08"/>
  <g id="g3254">
    <rect id="rect3258" x="43.61" y="90.59" width="25.54" height="10.69" rx="2.08" ry="2.08"/>
  </g>
  <g id="layer5">
    <rect id="use3090" x="224.78" y="40.1" width="10.69" height="10.69" rx="2.08" ry="2.08"/>
    <g id="use3984">
      <rect id="use3090-2" data-name="use3090" x="236.66" y="40.1" width="10.69" height="10.69" rx="2.08" ry="2.08"/>
    </g>
    <g id="use3986">
      <rect id="use3090-3" data-name="use3090" x="248.54" y="40.1" width="10.69" height="10.69" rx="2.08" ry="2.08"/>
    </g>
    <g id="use3988">
      <rect id="use3090-4" data-name="use3090" x="224.78" y="54.95" width="10.69" height="10.69" rx="2.08" ry="2.08"/>
    </g>
    <g id="use3990">
      <rect id="use3090-5" data-name="use3090" x="236.66" y="54.95" width="10.69" height="10.69" rx="2.08" ry="2.08"/>
    </g>
    <g id="use3992">
      <rect id="use3090-6" data-name="use3090" x="248.54" y="54.95" width="10.69" height="10.69" rx="2.08" ry="2.08"/>
    </g>
    <g id="use3994">
      <rect id="use3090-7" data-name="use3090" x="224.78" y="66.83" width="10.69" height="10.69" rx="2.08" ry="2.08"/>
    </g>
    <g id="use3996">
      <rect id="use3090-8" data-name="use3090" x="236.66" y="66.83" width="10.69" height="10.69" rx="2.08" ry="2.08"/>
    </g>
    <g id="use3998">
      <rect id="use3090-9" data-name="use3090" x="248.54" y="66.83" width="10.69" height="10.69" rx="2.08" ry="2.08"/>
    </g>
    <g id="use4000">
      <rect id="use3090-10" data-name="use3090" x="224.78" y="102.47" width="10.69" height="10.69" rx="2.08" ry="2.08"/>
    </g>
    <g id="use4002">
      <rect id="use3090-11" data-name="use3090" x="236.66" y="102.47" width="10.69" height="10.69" rx="2.08" ry="2.08"/>
    </g>
    <g id="use4004">
      <rect id="use3090-12" data-name="use3090" x="248.54" y="102.47" width="10.69" height="10.69" rx="2.08" ry="2.08"/>
    </g>
    <g id="use4006">
      <rect id="use3090-13" data-name="use3090" x="236.66" y="90.59" width="10.69" height="10.69" rx="2.08" ry="2.08"/>
    </g>
    <g id="use3343">
      <rect id="use3883-8" data-name="use3883" x="206.96" y="102.47" width="13.66" height="10.69" rx="2.08" ry="2.08"/>
    </g>
  </g>
</svg>